<svg xmlns="http://www.w3.org/2000/svg" width="158" height="100" viewBox="0 0 512 325"><path fill="#C43771" d="M192.4 43.6S0-88.3 0 123.3c0 61.1 48.6 161.6 136.8 157.9 97.2-4.1 185.2 9.4 306 32.7 109.2 21 87.6-238.4-53.5-231.5-99.5 4.9-151.5-11-196.9-38.8z"/><path fill="#FFF" d="M402.4 273.5h-.3c-6.1-.1-11.2-2.4-14.7-6.8-8.6-10.6-5.1-29.6-4.7-31.7l1.2-5.9 11.8 2.3-1.2 5.9c-.8 4-2 16.6 2.3 21.8.9 1.1 2.3 2.3 5.5 2.3 2.6.1 4.4-.7 5.8-2.3 4.8-5.4 4.3-18.1 3.8-22.2l-.8-6 11.9-1.5.8 6c.3 2.2 2.5 21.4-6.7 31.7-3.7 4.2-8.8 6.4-14.7 6.4zM129.6 237.4c-12.4 0-20.8-8.4-20.8-21 0-12.8 8.9-27.2 20.8-27.2s20.8 14.3 20.8 27.2c0 12.6-8.3 21-20.8 21zm0-38.1c-5.2 0-10.8 8.8-10.8 17.2 0 9.9 7.5 11 10.8 11s10.8-1.1 10.8-11c0-8.4-5.5-17.2-10.8-17.2zM174.2 238.1h-.3c-6.1-.1-11.2-2.4-14.7-6.8-8.6-10.6-5.1-29.6-4.7-31.7l1.2-5.9 11.8 2.3-1.2 5.9c-.8 4-2 16.6 2.3 21.8.9 1.1 2.3 2.3 5.5 2.3 2.5 0 4.4-.7 5.8-2.3 4.7-5.3 4.3-18.1 3.8-22.2l-.8-5.9 11.9-1.5.8 5.9c.3 2.2 2.5 21.4-6.7 31.7-3.7 4.2-8.8 6.4-14.7 6.4zM198.5 237.2l-.9-5.9c-.4-2.5-3.2-24.4 7.8-34.6 3.5-3.2 9.7-6.6 19.8-4.3l5.9 1.3-2.6 11.7-5.9-1.3c-6.1-1.4-8.3.7-9.1 1.4-5.1 4.7-5 18.3-4.1 24.1l.9 5.9-11.8 1.7zM86.5 52.4C58.3 35.8 59 43.3 37 25.2c0 0 6.6 17.2 2.9 42.4s16.3 38.8 16.3 38.8-15.7 4.8-13.4 22c2.3 17.2 6.6 17.7.9 33.6 0 0 13.4-9.5 29.5-7.7 16.1 1.8 28.3-16.2 29.5-20.9 0 0-19.9 25.2-42 7.8-22-17.5-4.8-37.7 9.8-29.9 0 0-19.7-12.5-17.9-34.7 1.8-22.2-.2-24.3.2-24 0 0 13.8 7.3 28.4 10.4s27.7 12.9 32 26.3c0-.1 1.4-20.3-26.7-36.9z"/><path fill="#FCFAFC" d="M145.2 32.1l-5-.1c-.7 25-14.7 31.8-18.5 33.2-21-13.4-20.6-30.5-20.6-31.2l-5-.2c0 .8-.6 18.2 18.9 32.8l.4 4.1c4.3 49.5-21.2 84.4-21.5 84.8l-3.6 4.8 9.6 7.2 3.6-4.8c1.2-1.6 28.5-38.8 23.9-93l-.1-1.5c6.6-3.9 17.3-13.4 17.9-36.1z"/><path fill="#FFF" d="M501.4 228.1l-12-.4c-.3 8.6-3.6 12.5-5.9 14.1-7.7-5.9-7.8-12.4-7.8-12.7v.1l-12-.5c0 .7-.1 4.4 1.9 9.3 1.6 3.9 4.9 9.3 11.6 14.2 1.7 22.1-7.8 28.6-8.2 28.8l.1-.1 6 10.4c.8-.5 5.2-3.2 8.9-10 4.2-7.7 6-17.4 5.2-28.9 5-3.1 11.7-9.9 12.2-24.3zM259.6 274.6c-7.2 0-12.8-1-13-1.1l-6.1-1.2 1.4-6.1c4.7-19.9-2.7-65.7-2.8-66.2l-.7-4.5 4.1-1.9c.6-.3 15.2-7 27.2-7 6 0 10.7 1.7 13.9 5 3 3.1 4.5 7.3 4.4 12.6-.1 7.3-2.7 14-7.5 19.7 3.8.8 7 2.5 9.5 5.1 4 4.2 5.9 10.6 5.5 18.9-.8 17-13.9 26.7-35.9 26.7zm-4.9-12.1c1.5.1 3.1.2 4.9.2 15.3 0 23.4-5.1 23.9-15.2.2-4.8-.5-8.3-2.2-10-.5-.5-1.9-2-6.5-2-5 0-11 1.7-15.8 3.1-1.4.4-2.7.8-3.8 1.1.4 7.9.3 16-.5 22.8zm-3-59.6c.8 5.2 1.9 14.3 2.8 24.4 2.4-.9 6.3-2.5 10-5 7.5-5 11.4-11.1 11.5-18.2 0-1.3-.1-3.1-1-4-.9-.9-2.8-1.4-5.4-1.4-6 0-13.4 2.4-17.9 4.2zM323.6 274.4h-.7c-11-.4-20-10.4-23-16.5-3.6-7.3-3.5-17.6.4-25.2 2.7-5.3 7-8.7 12.2-9.5 11.1-1.8 19.4 2.6 24.7 13.2 1.2 2.4 1.2 5.2 0 7.6-2.9 5.7-13.9 9.4-24.5 11.6 2.7 3.3 7 6.7 10.7 6.8.9 0 3.7.1 6.7-4.8l3.1-5.2 10.3 6.2-3.1 5.2c-5.3 8.6-11.9 10.6-16.8 10.6zm-6.5-39.6c-.8 0-1.7.1-2.7.2-1.3.2-2.5 1.3-3.5 3.1-.9 1.7-1.4 3.7-1.6 5.8 6.5-1.4 12.6-3.2 15.6-4.7-2-3.1-4.4-4.4-7.8-4.4z"/><path fill="#FFF" d="M381 271.6l-2-18.7c.3-4.5.1-10.1-.8-16.9l-.1-1-.5-.9c-.4-.9-4.6-8.5-12.6-8.5-6.6 0-12.6 5.1-18.2 15.5-4.5 8.3-4.7 17-.5 23.9 3.2 5.4 8.6 8.7 14 8.7 1.4 0 2.8-.2 4.1-.7 2-.7 3.8-1.5 5.5-2.5l.2 2.2 10.9-1.1zm-15.1-13.8c-.9 1.9-2.1 2.8-5.4 4h-.1c-.8 0-2.4-.8-3.7-2.9-1.1-1.9-2.5-6 .8-12.1 4.8-8.8 7.6-9.2 7.7-9.2.3 0 .9.6 1.5 1.3 1 9.1.8 15.5-.8 18.9zM456.5 256.1l-5.1 3.1c-3.4 2.1-5.3 2.5-6.1 2.6-.4-1.4-1.2-6.3 2.5-19.9v-.1h12.6v-12h-8.8c1.2-3.5 2.2-5.8 2.2-5.8l2.3-5.6-11.1-4.5-2.3 5.6c-.1.3-1.8 4.5-3.8 10.3H427v12h8.4c-4 15.6-3.3 24.7 2.1 29.3 2 1.7 4.5 2.6 7.3 2.6 3.6 0 7.9-1.5 12.8-4.4l5.1-3.1-6.2-10.1zM148.1 136.7c-12.4 0-20.8-8.4-20.8-21 0-12.8 8.9-27.2 20.8-27.2s20.8 14.3 20.8 27.2c0 12.6-8.4 21-20.8 21zm0-38.1c-5.2 0-10.8 8.8-10.8 17.2 0 9.9 7.5 11 10.8 11s10.8-1.1 10.8-11c0-8.4-5.6-17.2-10.8-17.2zM192.7 137.4h-.3c-6.1-.1-11.2-2.4-14.7-6.8-8.6-10.6-5.1-29.6-4.7-31.7l1.2-5.9 11.8 2.3-1.2 5.9c-.8 4-2 16.6 2.3 21.8.9 1.1 2.3 2.3 5.5 2.3 2.6 0 4.4-.7 5.8-2.3 4.8-5.4 4.3-18.1 3.8-22.2l-.8-6 11.9-1.5.8 6c.3 2.2 2.5 21.4-6.7 31.7-3.7 4.2-8.8 6.4-14.7 6.4zM216.9 136.5l-.9-5.9c-.4-2.5-3.2-24.4 7.8-34.6 3.5-3.2 9.7-6.6 19.8-4.3l5.9 1.3-2.6 11.7-5.9-1.3c-6.1-1.4-8.3.7-9.1 1.4-5.5 5.1-4.8 19.5-4.1 24.1l.9 5.9-11.8 1.7zM119 171.2l-12-.4c-.3 11-4.8 15.6-7.7 17.3-9.8-7.2-9.8-15.4-9.8-15.8v.1l-12-.5c0 .6-.5 15.2 15.5 26.5 2.2 26.5-9.3 34.1-9.8 34.5l.1-.1 6 10.4c.8-.4 18-10.9 15.7-44.5 5.5-3.2 13.5-10.7 14-27.5zM260.5 177c-3.1 0-6.1-.5-8.6-1.8-3.3-1.7-5.5-4.8-6.2-8.5-5.3-27.8 8.7-71 9.3-72.9l1.9-5.7 11.4 3.7-1.9 5.7c-.1.4-13.6 42.1-8.9 66.9v.1c2.2 1.4 12.3-.6 20.3-4l5.5-2.4 4.8 11-5.5 2.4c-3.5 1.6-13.4 5.5-22.1 5.5zM309.7 179.1c-12.4 0-20.8-8.4-20.8-21 0-12.8 8.9-27.2 20.8-27.2s20.8 14.3 20.8 27.2c0 12.6-8.3 21-20.8 21zm0-38.1c-5.2 0-10.8 8.8-10.8 17.2 0 9.9 7.5 11 10.8 11s10.8-1.1 10.8-11c0-8.4-5.5-17.2-10.8-17.2zM352.4 131c-11.9 0-20.8 14.3-20.8 27.2 0 12.5 8.3 21 20.8 21 12.4 0 20.8-8.4 20.8-21 0-12.9-8.9-27.2-20.8-27.2zm0 38.1c-3.2 0-10.8-1.1-10.8-11 0-8.3 5.5-17.2 10.8-17.2 5.2 0 10.8 8.8 10.8 17.2 0 9.9-7.5 11-10.8 11zM398.4 151.7c5.9-2.9 12.5-7.5 18-14.7l-9.6-7.3c-5.8 7.7-13.4 11.4-18.8 13.2 2.2-26.2 7-43.6 7.1-43.8l-5.8-1.6-5.8-1.6c-.4 1.4-9.5 33.7-8.5 78.3l12-.2c-.1-5.1-.1-10 .1-14.7 7 3.3 15.9 9.1 18.9 17l11.2-4.2c-3.5-9.4-11.4-16-18.8-20.4z"/></svg>