<?xml version="1.0" encoding="utf-8"?>
<!DOCTYPE svg PUBLIC "-//W3C//DTD SVG 1.1//EN" "http://www.w3.org/Graphics/SVG/1.1/DTD/svg11.dtd">
<svg version="1.1" id="Layer_1" xmlns="http://www.w3.org/2000/svg" xmlns:xlink="http://www.w3.org/1999/xlink" x="0px" y="0px"
	 width="158px" height="100px" viewBox="0 0 512 325" enable-background="new 0 0 512 325" xml:space="preserve">
<path fill="#C43771" d="M192.4,43.6C192.4,43.6,0-88.3,0,123.3c0,61.1,48.6,161.6,136.8,157.9c97.2-4.1,185.2,9.4,306,32.7
	C552,334.9,530.4,75.5,389.3,82.4C289.8,87.3,237.8,71.4,192.4,43.6z"/>
<path fill="#FFFFFF" d="M402.4,273.5c-0.1,0-0.2,0-0.3,0c-6.1-0.1-11.2-2.4-14.7-6.8c-8.6-10.6-5.1-29.6-4.7-31.7l1.2-5.9l11.8,2.3
	l-1.2,5.9c-0.8,4-2,16.6,2.3,21.8c0.9,1.1,2.3,2.3,5.5,2.3c2.6,0.1,4.4-0.7,5.8-2.3c4.8-5.4,4.3-18.1,3.8-22.2l-0.8-6l11.9-1.5
	l0.8,6c0.3,2.2,2.5,21.4-6.7,31.7C413.4,271.3,408.3,273.5,402.4,273.5z"/>
<path fill="#FFFFFF" d="M129.6,237.4c-12.4,0-20.8-8.4-20.8-21c0-12.8,8.9-27.2,20.8-27.2s20.8,14.3,20.8,27.2
	C150.4,229,142.1,237.4,129.6,237.4z M129.6,199.3c-5.2,0-10.8,8.8-10.8,17.2c0,9.9,7.5,11,10.8,11s10.8-1.1,10.8-11
	C140.4,208.1,134.9,199.3,129.6,199.3z"/>
<path fill="#FFFFFF" d="M174.2,238.1c-0.1,0-0.2,0-0.3,0c-6.1-0.1-11.2-2.4-14.7-6.8c-8.6-10.6-5.1-29.6-4.7-31.7l1.2-5.9l11.8,2.3
	l-1.2,5.9c-0.8,4-2,16.6,2.3,21.8c0.9,1.1,2.3,2.3,5.5,2.3c2.5,0,4.4-0.7,5.8-2.3c4.7-5.3,4.3-18.1,3.8-22.2l-0.8-5.9l11.9-1.5
	l0.8,5.9c0.3,2.2,2.5,21.4-6.7,31.7C185.2,235.9,180.1,238.1,174.2,238.1z"/>
<path fill="#FFFFFF" d="M198.5,237.2l-0.9-5.9c-0.4-2.5-3.2-24.4,7.8-34.6c3.5-3.2,9.7-6.6,19.8-4.3l5.9,1.3l-2.6,11.7l-5.9-1.3
	c-6.1-1.4-8.3,0.7-9.1,1.4c-5.1,4.7-5,18.3-4.1,24.1l0.9,5.9L198.5,237.2z"/>
<path fill="#FFFFFF" d="M86.5,52.4C58.3,35.8,59,43.3,37,25.2c0,0,6.6,17.2,2.9,42.4s16.3,38.8,16.3,38.8s-15.7,4.8-13.4,22
	c2.3,17.2,6.6,17.7,0.9,33.6c0,0,13.4-9.5,29.5-7.7c16.1,1.8,28.3-16.2,29.5-20.9c0,0-19.9,25.2-42,7.8c-22-17.5-4.8-37.7,9.8-29.9
	c0,0-19.7-12.5-17.9-34.7c1.8-22.2-0.2-24.3,0.2-24c0,0,13.8,7.3,28.4,10.4s27.7,12.9,32,26.3C113.2,89.2,114.6,69,86.5,52.4z"/>
<path fill="#FCFAFC" d="M145.2,32.1l-5-0.1c-0.7,25-14.7,31.8-18.5,33.2c-21-13.4-20.6-30.5-20.6-31.2l-5-0.2
	c0,0.8-0.6,18.2,18.9,32.8l0.4,4.1c4.3,49.5-21.2,84.4-21.5,84.8l-3.6,4.8l9.6,7.2l3.6-4.8c1.2-1.6,28.5-38.8,23.9-93l-0.1-1.5
	C133.9,64.3,144.6,54.8,145.2,32.1z"/>
<path fill="#FFFFFF" d="M501.4,228.1l-12-0.4c-0.3,8.6-3.6,12.5-5.9,14.1c-7.7-5.9-7.8-12.4-7.8-12.7l0,0.1l-12-0.5
	c0,0.7-0.1,4.4,1.9,9.3c1.6,3.9,4.9,9.3,11.6,14.2c1.7,22.1-7.8,28.6-8.2,28.8l0.1-0.1l6,10.4c0.8-0.5,5.2-3.2,8.9-10
	c4.2-7.7,6-17.4,5.2-28.9C494.2,249.3,500.9,242.5,501.4,228.1z"/>
<path fill="#FFFFFF" d="M259.6,274.6C259.6,274.6,259.6,274.6,259.6,274.6c-7.2,0-12.8-1-13-1.1l-6.1-1.2l1.4-6.1
	c4.7-19.9-2.7-65.7-2.8-66.2l-0.7-4.5l4.1-1.9c0.6-0.3,15.2-7,27.2-7c6,0,10.7,1.7,13.9,5c3,3.1,4.5,7.3,4.4,12.6
	c-0.1,7.3-2.7,14-7.5,19.7c3.8,0.8,7,2.5,9.5,5.1c4,4.2,5.9,10.6,5.5,18.9C294.7,264.9,281.6,274.6,259.6,274.6z M254.7,262.5
	c1.5,0.1,3.1,0.2,4.9,0.2c15.3,0,23.4-5.1,23.9-15.2c0.2-4.8-0.5-8.3-2.2-10c-0.5-0.5-1.9-2-6.5-2c-5,0-11,1.7-15.8,3.1
	c-1.4,0.4-2.7,0.8-3.8,1.1C255.6,247.6,255.5,255.7,254.7,262.5z M251.7,202.9c0.8,5.2,1.9,14.3,2.8,24.4c2.4-0.9,6.3-2.5,10-5
	c7.5-5,11.4-11.1,11.5-18.2c0-1.3-0.1-3.1-1-4c-0.9-0.9-2.8-1.4-5.4-1.4C263.6,198.7,256.2,201.1,251.7,202.9z"/>
<path fill="#FFFFFF" d="M323.6,274.4c-0.2,0-0.5,0-0.7,0c-11-0.4-20-10.4-23-16.5c-3.6-7.3-3.5-17.6,0.4-25.2
	c2.7-5.3,7-8.7,12.2-9.5c11.1-1.8,19.4,2.6,24.7,13.2c1.2,2.4,1.2,5.2,0,7.6c-2.9,5.7-13.9,9.4-24.5,11.6c2.7,3.3,7,6.7,10.7,6.8
	c0.9,0,3.7,0.1,6.7-4.8l3.1-5.2l10.3,6.2l-3.1,5.2C335.1,272.4,328.5,274.4,323.6,274.4z M317.1,234.8c-0.8,0-1.7,0.1-2.7,0.2
	c-1.3,0.2-2.5,1.3-3.5,3.1c-0.9,1.7-1.4,3.7-1.6,5.8c6.5-1.4,12.6-3.2,15.6-4.7C322.9,236.1,320.5,234.8,317.1,234.8z"/>
<path fill="#FFFFFF" d="M381,271.6l-2-18.7c0.3-4.5,0.1-10.1-0.8-16.9l-0.1-1l-0.5-0.9c-0.4-0.9-4.6-8.5-12.6-8.5
	c-6.6,0-12.6,5.1-18.2,15.5c-4.5,8.3-4.7,17-0.5,23.9c3.2,5.4,8.6,8.7,14,8.7c0,0,0,0,0,0c1.4,0,2.8-0.2,4.1-0.7
	c2-0.7,3.8-1.5,5.5-2.5l0.2,2.2L381,271.6z M365.9,257.8c-0.9,1.9-2.1,2.8-5.4,4c0,0,0,0-0.1,0c-0.8,0-2.4-0.8-3.7-2.9
	c-1.1-1.9-2.5-6,0.8-12.1c4.8-8.8,7.6-9.2,7.7-9.2c0.3,0,0.9,0.6,1.5,1.3C367.7,248,367.5,254.4,365.9,257.8z"/>
<path fill="#FFFFFF" d="M456.5,256.1l-5.1,3.1c-3.4,2.1-5.3,2.5-6.1,2.6c-0.4-1.4-1.2-6.3,2.5-19.9c0,0,0,0,0-0.1h12.6v-12h-8.8
	c1.2-3.5,2.2-5.8,2.2-5.8l2.3-5.6l-11.1-4.5l-2.3,5.6c-0.1,0.3-1.8,4.5-3.8,10.3H427v12h8.4c-4,15.6-3.3,24.7,2.1,29.3
	c2,1.7,4.5,2.6,7.3,2.6c3.6,0,7.9-1.5,12.8-4.4l5.1-3.1L456.5,256.1z"/>
<path fill="#FFFFFF" d="M148.1,136.7c-12.4,0-20.8-8.4-20.8-21c0-12.8,8.9-27.2,20.8-27.2s20.8,14.3,20.8,27.2
	C168.9,128.3,160.5,136.7,148.1,136.7z M148.1,98.6c-5.2,0-10.8,8.8-10.8,17.2c0,9.9,7.5,11,10.8,11s10.8-1.1,10.8-11
	C158.9,107.4,153.3,98.6,148.1,98.6z"/>
<path fill="#FFFFFF" d="M192.7,137.4c-0.1,0-0.2,0-0.3,0c-6.1-0.1-11.2-2.4-14.7-6.8c-8.6-10.6-5.1-29.6-4.7-31.7l1.2-5.9l11.8,2.3
	l-1.2,5.9c-0.8,4-2,16.6,2.3,21.8c0.9,1.1,2.3,2.3,5.5,2.3c2.6,0,4.4-0.7,5.8-2.3c4.8-5.4,4.3-18.1,3.8-22.2l-0.8-6l11.9-1.5l0.8,6
	c0.3,2.2,2.5,21.4-6.7,31.7C203.7,135.2,198.6,137.4,192.7,137.4z"/>
<path fill="#FFFFFF" d="M216.9,136.5l-0.9-5.9c-0.4-2.5-3.2-24.4,7.8-34.6c3.5-3.2,9.7-6.6,19.8-4.3l5.9,1.3l-2.6,11.7l-5.9-1.3
	c-6.1-1.4-8.3,0.7-9.1,1.4c-5.5,5.1-4.8,19.5-4.1,24.1l0.9,5.9L216.9,136.5z"/>
<path fill="#FFFFFF" d="M119,171.2l-12-0.4c-0.3,11-4.8,15.6-7.7,17.3c-9.8-7.2-9.8-15.4-9.8-15.8l0,0.1l-12-0.5
	c0,0.6-0.5,15.2,15.5,26.5c2.2,26.5-9.3,34.1-9.8,34.5l0.1-0.1l6,10.4c0.8-0.4,18-10.9,15.7-44.5C110.5,195.5,118.5,188,119,171.2z"
	/>
<path fill="#FFFFFF" d="M260.5,177c-3.1,0-6.1-0.5-8.6-1.8c-3.3-1.7-5.5-4.8-6.2-8.5c-5.3-27.8,8.7-71,9.3-72.9l1.9-5.7l11.4,3.7
	l-1.9,5.7c-0.1,0.4-13.6,42.1-8.9,66.9c0,0.1,0,0.1,0,0.1c2.2,1.4,12.3-0.6,20.3-4l5.5-2.4l4.8,11l-5.5,2.4
	C279.1,173.1,269.2,177,260.5,177z"/>
<path fill="#FFFFFF" d="M309.7,179.1c-12.4,0-20.8-8.4-20.8-21c0-12.8,8.9-27.2,20.8-27.2c11.9,0,20.8,14.3,20.8,27.2
	C330.5,170.7,322.2,179.1,309.7,179.1z M309.7,141c-5.2,0-10.8,8.8-10.8,17.2c0,9.9,7.5,11,10.8,11s10.8-1.1,10.8-11
	C320.5,149.8,315,141,309.7,141z"/>
<path fill="#FFFFFF" d="M352.4,131c-11.9,0-20.8,14.3-20.8,27.2c0,12.5,8.3,21,20.8,21c12.4,0,20.8-8.4,20.8-21
	C373.2,145.3,364.3,131,352.4,131z M352.4,169.1c-3.2,0-10.8-1.1-10.8-11c0-8.3,5.5-17.2,10.8-17.2c5.2,0,10.8,8.8,10.8,17.2
	C363.2,168,355.7,169.1,352.4,169.1z"/>
<path fill="#FFFFFF" d="M398.4,151.7c5.9-2.9,12.5-7.5,18-14.7l-9.6-7.3c-5.8,7.7-13.4,11.4-18.8,13.2c2.2-26.2,7-43.6,7.1-43.8
	l-5.8-1.6l-5.8-1.6c-0.4,1.4-9.5,33.7-8.5,78.3l12-0.2c-0.1-5.1-0.1-10,0.1-14.7c7,3.3,15.9,9.1,18.9,17l11.2-4.2
	C413.7,162.7,405.8,156.1,398.4,151.7z"/>
</svg>
